<?xml version="1.0" encoding="UTF-8"?>
<svg xmlns="http://www.w3.org/2000/svg" viewBox="0 0 1600 700" width="800" height="350" role="img" aria-labelledby="figure-title figure-description">
  <title id="figure-title">Partitioning the GEMM output matrix among CUDA thread blocks</title>
  <desc id="figure-description">Kernel 13 maps blockIdx.x and threadIdx.x to output rows, and blockIdx.y and threadIdx.y to output columns. The output matrix D is divided into tiles, and one tile is enlarged as an illustrative four-by-four thread block where each in-bounds thread owns one output element.</desc>
  <defs>
    <style>
      :root {
        color-scheme: light dark;
        --background: #fafaf9;
        --text: #172033;
        --muted-text: #475569;
        --cell: #f1f5f9;
        --grid: #94a3b8;
        --tile-boundary: #475569;
        --d-accent: #cc79a7;
        --d-fill: #f7dceb;
        --d-text: #9d4778;
      }

      @media (prefers-color-scheme: dark) {
        :root {
          --background: #111827;
          --text: #f8fafc;
          --muted-text: #cbd5e1;
          --cell: #1f2937;
          --grid: #64748b;
          --tile-boundary: #cbd5e1;
          --d-fill: #552f48;
          --d-text: #f0a8d0;
        }
      }

      text {
        font-family: Inter, ui-sans-serif, system-ui, -apple-system, BlinkMacSystemFont,
          "Segoe UI", sans-serif;
      }

      .background { fill: var(--background); }
      .panel-title { font-size: 38px; font-weight: 750; fill: var(--text); }
      .panel-title-d { fill: var(--d-text); }
      .panel-subtitle { font-size: 25px; font-weight: 550; fill: var(--muted-text); }
      .overview-cell { fill: var(--cell); stroke: var(--grid); stroke-width: 1; }
      .selected-tile-cell { fill: var(--d-fill); }
      .cta-boundary { fill: none; stroke: var(--tile-boundary); stroke-width: 3; }
      .selected-cta-boundary { stroke: var(--d-accent); stroke-width: 5; }
      .matrix-outline { fill: none; stroke: var(--tile-boundary); stroke-width: 4; }
      .cta-label-background {
        fill: var(--background);
        stroke: var(--tile-boundary);
        stroke-width: 1.5;
      }
      .selected-cta-label-background {
        fill: var(--d-fill);
        stroke: var(--d-accent);
        stroke-width: 2.5;
      }
      .cta-label { font-size: 19px; font-weight: 700; fill: var(--muted-text); }
      .selected-cta-label { font-size: 19px; fill: var(--d-text); }
      .axis-line { stroke: var(--muted-text); stroke-width: 2; }
      .axis-label { font-size: 19px; font-weight: 700; fill: var(--muted-text); }
      .axis-index {
        font-family: ui-monospace, SFMono-Regular, Menlo, Monaco, Consolas, monospace;
        font-size: 18px;
        font-weight: 700;
        fill: var(--muted-text);
      }
      .connector {
        fill: none;
        stroke: var(--d-accent);
        stroke-width: 4;
        stroke-dasharray: 11 10;
      }
      .zoom-label-background {
        fill: var(--background);
        stroke: var(--d-accent);
        stroke-width: 2.5;
      }
      .zoom-label { font-size: 21px; font-weight: 700; fill: var(--d-text); }
      .detail-cell { fill: var(--d-fill); stroke: var(--d-accent); stroke-width: 2; }
      .detail-outline { fill: none; stroke: var(--d-accent); stroke-width: 5; }
      .thread-label { font-size: 19px; font-weight: 750; fill: var(--d-text); }
      .thread-coordinate {
        font-family: ui-monospace, SFMono-Regular, Menlo, Monaco, Consolas, monospace;
        font-size: 18px;
        font-weight: 550;
        fill: var(--muted-text);
      }
      .explanation-tag {
        fill: var(--d-fill);
        stroke: var(--d-accent);
        stroke-width: 2.5;
      }
      .explanation-label { font-size: 22px; font-weight: 700; fill: var(--d-text); }
    </style>
  </defs>
  <rect x="0" y="0" width="1600" height="700" rx="24" class="background" />
  <text x="352.0" y="47" class="panel-title panel-title-d" text-anchor="middle" dominant-baseline="middle">Output matrix D</text>
  <text x="352.0" y="86" class="panel-subtitle" text-anchor="middle" dominant-baseline="middle">(M × N), partitioned into output tiles</text>
  <text x="1264.0" y="47" class="panel-title" text-anchor="middle" dominant-baseline="middle">One CTA / thread block</text>
  <text x="1264.0" y="86" class="panel-subtitle" text-anchor="middle" dominant-baseline="middle">illustrative 4 × 4 threads</text>
  <text x="352.0" y="111" class="axis-label" text-anchor="middle" dominant-baseline="middle">blockIdx.y  →  output tile columns</text>
  <line x1="80" y1="155" x2="624" y2="155" class="axis-line" />
  <text x="148.0" y="138" class="axis-index" text-anchor="middle" dominant-baseline="middle">0</text>
  <line x1="148.0" y1="150" x2="148.0" y2="161" class="axis-line" />
  <text x="284.0" y="138" class="axis-index" text-anchor="middle" dominant-baseline="middle">1</text>
  <line x1="284.0" y1="150" x2="284.0" y2="161" class="axis-line" />
  <text x="420.0" y="138" class="axis-index" text-anchor="middle" dominant-baseline="middle">2</text>
  <line x1="420.0" y1="150" x2="420.0" y2="161" class="axis-line" />
  <text x="556.0" y="138" class="axis-index" text-anchor="middle" dominant-baseline="middle">3</text>
  <line x1="556.0" y1="150" x2="556.0" y2="161" class="axis-line" />
  <text x="18" y="374.0" class="axis-label" text-anchor="middle" dominant-baseline="middle" transform="rotate(90 18 374.0)">blockIdx.x  →  output tile rows</text>
  <line x1="68" y1="170" x2="68" y2="578" class="axis-line" />
  <text x="49" y="238.0" class="axis-index" text-anchor="middle" dominant-baseline="middle">0</text>
  <line x1="63" y1="238.0" x2="74" y2="238.0" class="axis-line" />
  <text x="49" y="374.0" class="axis-index" text-anchor="middle" dominant-baseline="middle">1</text>
  <line x1="63" y1="374.0" x2="74" y2="374.0" class="axis-line" />
  <text x="49" y="510.0" class="axis-index" text-anchor="middle" dominant-baseline="middle">2</text>
  <line x1="63" y1="510.0" x2="74" y2="510.0" class="axis-line" />
  <text x="1264.0" y="111" class="axis-label" text-anchor="middle" dominant-baseline="middle">threadIdx.y  →  output columns</text>
  <line x1="1080" y1="155" x2="1448" y2="155" class="axis-line" />
  <text x="1126.0" y="138" class="axis-index" text-anchor="middle" dominant-baseline="middle">0</text>
  <line x1="1126.0" y1="150" x2="1126.0" y2="161" class="axis-line" />
  <text x="1218.0" y="138" class="axis-index" text-anchor="middle" dominant-baseline="middle">1</text>
  <line x1="1218.0" y1="150" x2="1218.0" y2="161" class="axis-line" />
  <text x="1310.0" y="138" class="axis-index" text-anchor="middle" dominant-baseline="middle">2</text>
  <line x1="1310.0" y1="150" x2="1310.0" y2="161" class="axis-line" />
  <text x="1402.0" y="138" class="axis-index" text-anchor="middle" dominant-baseline="middle">3</text>
  <line x1="1402.0" y1="150" x2="1402.0" y2="161" class="axis-line" />
  <text x="1018" y="354.0" class="axis-label" text-anchor="middle" dominant-baseline="middle" transform="rotate(90 1018 354.0)">threadIdx.x  →  output rows</text>
  <line x1="1068" y1="170" x2="1068" y2="538" class="axis-line" />
  <text x="1049" y="216.0" class="axis-index" text-anchor="middle" dominant-baseline="middle">0</text>
  <line x1="1063" y1="216.0" x2="1074" y2="216.0" class="axis-line" />
  <text x="1049" y="308.0" class="axis-index" text-anchor="middle" dominant-baseline="middle">1</text>
  <line x1="1063" y1="308.0" x2="1074" y2="308.0" class="axis-line" />
  <text x="1049" y="400.0" class="axis-index" text-anchor="middle" dominant-baseline="middle">2</text>
  <line x1="1063" y1="400.0" x2="1074" y2="400.0" class="axis-line" />
  <text x="1049" y="492.0" class="axis-index" text-anchor="middle" dominant-baseline="middle">3</text>
  <line x1="1063" y1="492.0" x2="1074" y2="492.0" class="axis-line" />
  <g id="output-matrix-overview">
    <rect x="80" y="170" width="34" height="34" class="overview-cell" />
    <rect x="114" y="170" width="34" height="34" class="overview-cell" />
    <rect x="148" y="170" width="34" height="34" class="overview-cell" />
    <rect x="182" y="170" width="34" height="34" class="overview-cell" />
    <rect x="216" y="170" width="34" height="34" class="overview-cell" />
    <rect x="250" y="170" width="34" height="34" class="overview-cell" />
    <rect x="284" y="170" width="34" height="34" class="overview-cell" />
    <rect x="318" y="170" width="34" height="34" class="overview-cell" />
    <rect x="352" y="170" width="34" height="34" class="overview-cell" />
    <rect x="386" y="170" width="34" height="34" class="overview-cell" />
    <rect x="420" y="170" width="34" height="34" class="overview-cell" />
    <rect x="454" y="170" width="34" height="34" class="overview-cell" />
    <rect x="488" y="170" width="34" height="34" class="overview-cell" />
    <rect x="522" y="170" width="34" height="34" class="overview-cell" />
    <rect x="556" y="170" width="34" height="34" class="overview-cell" />
    <rect x="590" y="170" width="34" height="34" class="overview-cell" />
    <rect x="80" y="204" width="34" height="34" class="overview-cell" />
    <rect x="114" y="204" width="34" height="34" class="overview-cell" />
    <rect x="148" y="204" width="34" height="34" class="overview-cell" />
    <rect x="182" y="204" width="34" height="34" class="overview-cell" />
    <rect x="216" y="204" width="34" height="34" class="overview-cell" />
    <rect x="250" y="204" width="34" height="34" class="overview-cell" />
    <rect x="284" y="204" width="34" height="34" class="overview-cell" />
    <rect x="318" y="204" width="34" height="34" class="overview-cell" />
    <rect x="352" y="204" width="34" height="34" class="overview-cell" />
    <rect x="386" y="204" width="34" height="34" class="overview-cell" />
    <rect x="420" y="204" width="34" height="34" class="overview-cell" />
    <rect x="454" y="204" width="34" height="34" class="overview-cell" />
    <rect x="488" y="204" width="34" height="34" class="overview-cell" />
    <rect x="522" y="204" width="34" height="34" class="overview-cell" />
    <rect x="556" y="204" width="34" height="34" class="overview-cell" />
    <rect x="590" y="204" width="34" height="34" class="overview-cell" />
    <rect x="80" y="238" width="34" height="34" class="overview-cell" />
    <rect x="114" y="238" width="34" height="34" class="overview-cell" />
    <rect x="148" y="238" width="34" height="34" class="overview-cell" />
    <rect x="182" y="238" width="34" height="34" class="overview-cell" />
    <rect x="216" y="238" width="34" height="34" class="overview-cell" />
    <rect x="250" y="238" width="34" height="34" class="overview-cell" />
    <rect x="284" y="238" width="34" height="34" class="overview-cell" />
    <rect x="318" y="238" width="34" height="34" class="overview-cell" />
    <rect x="352" y="238" width="34" height="34" class="overview-cell" />
    <rect x="386" y="238" width="34" height="34" class="overview-cell" />
    <rect x="420" y="238" width="34" height="34" class="overview-cell" />
    <rect x="454" y="238" width="34" height="34" class="overview-cell" />
    <rect x="488" y="238" width="34" height="34" class="overview-cell" />
    <rect x="522" y="238" width="34" height="34" class="overview-cell" />
    <rect x="556" y="238" width="34" height="34" class="overview-cell" />
    <rect x="590" y="238" width="34" height="34" class="overview-cell" />
    <rect x="80" y="272" width="34" height="34" class="overview-cell" />
    <rect x="114" y="272" width="34" height="34" class="overview-cell" />
    <rect x="148" y="272" width="34" height="34" class="overview-cell" />
    <rect x="182" y="272" width="34" height="34" class="overview-cell" />
    <rect x="216" y="272" width="34" height="34" class="overview-cell" />
    <rect x="250" y="272" width="34" height="34" class="overview-cell" />
    <rect x="284" y="272" width="34" height="34" class="overview-cell" />
    <rect x="318" y="272" width="34" height="34" class="overview-cell" />
    <rect x="352" y="272" width="34" height="34" class="overview-cell" />
    <rect x="386" y="272" width="34" height="34" class="overview-cell" />
    <rect x="420" y="272" width="34" height="34" class="overview-cell" />
    <rect x="454" y="272" width="34" height="34" class="overview-cell" />
    <rect x="488" y="272" width="34" height="34" class="overview-cell" />
    <rect x="522" y="272" width="34" height="34" class="overview-cell" />
    <rect x="556" y="272" width="34" height="34" class="overview-cell" />
    <rect x="590" y="272" width="34" height="34" class="overview-cell" />
    <rect x="80" y="306" width="34" height="34" class="overview-cell" />
    <rect x="114" y="306" width="34" height="34" class="overview-cell" />
    <rect x="148" y="306" width="34" height="34" class="overview-cell" />
    <rect x="182" y="306" width="34" height="34" class="overview-cell" />
    <rect x="216" y="306" width="34" height="34" class="overview-cell" />
    <rect x="250" y="306" width="34" height="34" class="overview-cell" />
    <rect x="284" y="306" width="34" height="34" class="overview-cell" />
    <rect x="318" y="306" width="34" height="34" class="overview-cell" />
    <rect x="352" y="306" width="34" height="34" class="overview-cell" />
    <rect x="386" y="306" width="34" height="34" class="overview-cell" />
    <rect x="420" y="306" width="34" height="34" class="overview-cell" />
    <rect x="454" y="306" width="34" height="34" class="overview-cell" />
    <rect x="488" y="306" width="34" height="34" class="overview-cell selected-tile-cell" />
    <rect x="522" y="306" width="34" height="34" class="overview-cell selected-tile-cell" />
    <rect x="556" y="306" width="34" height="34" class="overview-cell selected-tile-cell" />
    <rect x="590" y="306" width="34" height="34" class="overview-cell selected-tile-cell" />
    <rect x="80" y="340" width="34" height="34" class="overview-cell" />
    <rect x="114" y="340" width="34" height="34" class="overview-cell" />
    <rect x="148" y="340" width="34" height="34" class="overview-cell" />
    <rect x="182" y="340" width="34" height="34" class="overview-cell" />
    <rect x="216" y="340" width="34" height="34" class="overview-cell" />
    <rect x="250" y="340" width="34" height="34" class="overview-cell" />
    <rect x="284" y="340" width="34" height="34" class="overview-cell" />
    <rect x="318" y="340" width="34" height="34" class="overview-cell" />
    <rect x="352" y="340" width="34" height="34" class="overview-cell" />
    <rect x="386" y="340" width="34" height="34" class="overview-cell" />
    <rect x="420" y="340" width="34" height="34" class="overview-cell" />
    <rect x="454" y="340" width="34" height="34" class="overview-cell" />
    <rect x="488" y="340" width="34" height="34" class="overview-cell selected-tile-cell" />
    <rect x="522" y="340" width="34" height="34" class="overview-cell selected-tile-cell" />
    <rect x="556" y="340" width="34" height="34" class="overview-cell selected-tile-cell" />
    <rect x="590" y="340" width="34" height="34" class="overview-cell selected-tile-cell" />
    <rect x="80" y="374" width="34" height="34" class="overview-cell" />
    <rect x="114" y="374" width="34" height="34" class="overview-cell" />
    <rect x="148" y="374" width="34" height="34" class="overview-cell" />
    <rect x="182" y="374" width="34" height="34" class="overview-cell" />
    <rect x="216" y="374" width="34" height="34" class="overview-cell" />
    <rect x="250" y="374" width="34" height="34" class="overview-cell" />
    <rect x="284" y="374" width="34" height="34" class="overview-cell" />
    <rect x="318" y="374" width="34" height="34" class="overview-cell" />
    <rect x="352" y="374" width="34" height="34" class="overview-cell" />
    <rect x="386" y="374" width="34" height="34" class="overview-cell" />
    <rect x="420" y="374" width="34" height="34" class="overview-cell" />
    <rect x="454" y="374" width="34" height="34" class="overview-cell" />
    <rect x="488" y="374" width="34" height="34" class="overview-cell selected-tile-cell" />
    <rect x="522" y="374" width="34" height="34" class="overview-cell selected-tile-cell" />
    <rect x="556" y="374" width="34" height="34" class="overview-cell selected-tile-cell" />
    <rect x="590" y="374" width="34" height="34" class="overview-cell selected-tile-cell" />
    <rect x="80" y="408" width="34" height="34" class="overview-cell" />
    <rect x="114" y="408" width="34" height="34" class="overview-cell" />
    <rect x="148" y="408" width="34" height="34" class="overview-cell" />
    <rect x="182" y="408" width="34" height="34" class="overview-cell" />
    <rect x="216" y="408" width="34" height="34" class="overview-cell" />
    <rect x="250" y="408" width="34" height="34" class="overview-cell" />
    <rect x="284" y="408" width="34" height="34" class="overview-cell" />
    <rect x="318" y="408" width="34" height="34" class="overview-cell" />
    <rect x="352" y="408" width="34" height="34" class="overview-cell" />
    <rect x="386" y="408" width="34" height="34" class="overview-cell" />
    <rect x="420" y="408" width="34" height="34" class="overview-cell" />
    <rect x="454" y="408" width="34" height="34" class="overview-cell" />
    <rect x="488" y="408" width="34" height="34" class="overview-cell selected-tile-cell" />
    <rect x="522" y="408" width="34" height="34" class="overview-cell selected-tile-cell" />
    <rect x="556" y="408" width="34" height="34" class="overview-cell selected-tile-cell" />
    <rect x="590" y="408" width="34" height="34" class="overview-cell selected-tile-cell" />
    <rect x="80" y="442" width="34" height="34" class="overview-cell" />
    <rect x="114" y="442" width="34" height="34" class="overview-cell" />
    <rect x="148" y="442" width="34" height="34" class="overview-cell" />
    <rect x="182" y="442" width="34" height="34" class="overview-cell" />
    <rect x="216" y="442" width="34" height="34" class="overview-cell" />
    <rect x="250" y="442" width="34" height="34" class="overview-cell" />
    <rect x="284" y="442" width="34" height="34" class="overview-cell" />
    <rect x="318" y="442" width="34" height="34" class="overview-cell" />
    <rect x="352" y="442" width="34" height="34" class="overview-cell" />
    <rect x="386" y="442" width="34" height="34" class="overview-cell" />
    <rect x="420" y="442" width="34" height="34" class="overview-cell" />
    <rect x="454" y="442" width="34" height="34" class="overview-cell" />
    <rect x="488" y="442" width="34" height="34" class="overview-cell" />
    <rect x="522" y="442" width="34" height="34" class="overview-cell" />
    <rect x="556" y="442" width="34" height="34" class="overview-cell" />
    <rect x="590" y="442" width="34" height="34" class="overview-cell" />
    <rect x="80" y="476" width="34" height="34" class="overview-cell" />
    <rect x="114" y="476" width="34" height="34" class="overview-cell" />
    <rect x="148" y="476" width="34" height="34" class="overview-cell" />
    <rect x="182" y="476" width="34" height="34" class="overview-cell" />
    <rect x="216" y="476" width="34" height="34" class="overview-cell" />
    <rect x="250" y="476" width="34" height="34" class="overview-cell" />
    <rect x="284" y="476" width="34" height="34" class="overview-cell" />
    <rect x="318" y="476" width="34" height="34" class="overview-cell" />
    <rect x="352" y="476" width="34" height="34" class="overview-cell" />
    <rect x="386" y="476" width="34" height="34" class="overview-cell" />
    <rect x="420" y="476" width="34" height="34" class="overview-cell" />
    <rect x="454" y="476" width="34" height="34" class="overview-cell" />
    <rect x="488" y="476" width="34" height="34" class="overview-cell" />
    <rect x="522" y="476" width="34" height="34" class="overview-cell" />
    <rect x="556" y="476" width="34" height="34" class="overview-cell" />
    <rect x="590" y="476" width="34" height="34" class="overview-cell" />
    <rect x="80" y="510" width="34" height="34" class="overview-cell" />
    <rect x="114" y="510" width="34" height="34" class="overview-cell" />
    <rect x="148" y="510" width="34" height="34" class="overview-cell" />
    <rect x="182" y="510" width="34" height="34" class="overview-cell" />
    <rect x="216" y="510" width="34" height="34" class="overview-cell" />
    <rect x="250" y="510" width="34" height="34" class="overview-cell" />
    <rect x="284" y="510" width="34" height="34" class="overview-cell" />
    <rect x="318" y="510" width="34" height="34" class="overview-cell" />
    <rect x="352" y="510" width="34" height="34" class="overview-cell" />
    <rect x="386" y="510" width="34" height="34" class="overview-cell" />
    <rect x="420" y="510" width="34" height="34" class="overview-cell" />
    <rect x="454" y="510" width="34" height="34" class="overview-cell" />
    <rect x="488" y="510" width="34" height="34" class="overview-cell" />
    <rect x="522" y="510" width="34" height="34" class="overview-cell" />
    <rect x="556" y="510" width="34" height="34" class="overview-cell" />
    <rect x="590" y="510" width="34" height="34" class="overview-cell" />
    <rect x="80" y="544" width="34" height="34" class="overview-cell" />
    <rect x="114" y="544" width="34" height="34" class="overview-cell" />
    <rect x="148" y="544" width="34" height="34" class="overview-cell" />
    <rect x="182" y="544" width="34" height="34" class="overview-cell" />
    <rect x="216" y="544" width="34" height="34" class="overview-cell" />
    <rect x="250" y="544" width="34" height="34" class="overview-cell" />
    <rect x="284" y="544" width="34" height="34" class="overview-cell" />
    <rect x="318" y="544" width="34" height="34" class="overview-cell" />
    <rect x="352" y="544" width="34" height="34" class="overview-cell" />
    <rect x="386" y="544" width="34" height="34" class="overview-cell" />
    <rect x="420" y="544" width="34" height="34" class="overview-cell" />
    <rect x="454" y="544" width="34" height="34" class="overview-cell" />
    <rect x="488" y="544" width="34" height="34" class="overview-cell" />
    <rect x="522" y="544" width="34" height="34" class="overview-cell" />
    <rect x="556" y="544" width="34" height="34" class="overview-cell" />
    <rect x="590" y="544" width="34" height="34" class="overview-cell" />
    <rect x="80" y="170" width="136" height="136" class="cta-boundary" />
    <rect x="114.0" y="222.0" width="68" height="32" rx="9" class="cta-label-background" />
    <text x="148.0" y="238.0" class="cta-label" text-anchor="middle" dominant-baseline="middle">(0, 0)</text>
    <rect x="216" y="170" width="136" height="136" class="cta-boundary" />
    <rect x="250.0" y="222.0" width="68" height="32" rx="9" class="cta-label-background" />
    <text x="284.0" y="238.0" class="cta-label" text-anchor="middle" dominant-baseline="middle">(0, 1)</text>
    <rect x="352" y="170" width="136" height="136" class="cta-boundary" />
    <rect x="386.0" y="222.0" width="68" height="32" rx="9" class="cta-label-background" />
    <text x="420.0" y="238.0" class="cta-label" text-anchor="middle" dominant-baseline="middle">(0, 2)</text>
    <rect x="488" y="170" width="136" height="136" class="cta-boundary" />
    <rect x="522.0" y="222.0" width="68" height="32" rx="9" class="cta-label-background" />
    <text x="556.0" y="238.0" class="cta-label" text-anchor="middle" dominant-baseline="middle">(0, 3)</text>
    <rect x="80" y="306" width="136" height="136" class="cta-boundary" />
    <rect x="114.0" y="358.0" width="68" height="32" rx="9" class="cta-label-background" />
    <text x="148.0" y="374.0" class="cta-label" text-anchor="middle" dominant-baseline="middle">(1, 0)</text>
    <rect x="216" y="306" width="136" height="136" class="cta-boundary" />
    <rect x="250.0" y="358.0" width="68" height="32" rx="9" class="cta-label-background" />
    <text x="284.0" y="374.0" class="cta-label" text-anchor="middle" dominant-baseline="middle">(1, 1)</text>
    <rect x="352" y="306" width="136" height="136" class="cta-boundary" />
    <rect x="386.0" y="358.0" width="68" height="32" rx="9" class="cta-label-background" />
    <text x="420.0" y="374.0" class="cta-label" text-anchor="middle" dominant-baseline="middle">(1, 2)</text>
    <rect x="488" y="306" width="136" height="136" class="cta-boundary selected-cta-boundary" />
    <rect x="522.0" y="358.0" width="68" height="32" rx="9" class="cta-label-background selected-cta-label-background" />
    <text x="556.0" y="374.0" class="cta-label selected-cta-label" text-anchor="middle" dominant-baseline="middle">(1, 3)</text>
    <rect x="80" y="442" width="136" height="136" class="cta-boundary" />
    <rect x="114.0" y="494.0" width="68" height="32" rx="9" class="cta-label-background" />
    <text x="148.0" y="510.0" class="cta-label" text-anchor="middle" dominant-baseline="middle">(2, 0)</text>
    <rect x="216" y="442" width="136" height="136" class="cta-boundary" />
    <rect x="250.0" y="494.0" width="68" height="32" rx="9" class="cta-label-background" />
    <text x="284.0" y="510.0" class="cta-label" text-anchor="middle" dominant-baseline="middle">(2, 1)</text>
    <rect x="352" y="442" width="136" height="136" class="cta-boundary" />
    <rect x="386.0" y="494.0" width="68" height="32" rx="9" class="cta-label-background" />
    <text x="420.0" y="510.0" class="cta-label" text-anchor="middle" dominant-baseline="middle">(2, 2)</text>
    <rect x="488" y="442" width="136" height="136" class="cta-boundary" />
    <rect x="522.0" y="494.0" width="68" height="32" rx="9" class="cta-label-background" />
    <text x="556.0" y="510.0" class="cta-label" text-anchor="middle" dominant-baseline="middle">(2, 3)</text>
    <rect x="80" y="170" width="544" height="408" class="matrix-outline" />
  </g>
  <line x1="624" y1="306" x2="1080" y2="170" class="connector" />
  <line x1="624" y1="442" x2="1080" y2="538" class="connector" />
  <rect x="805" y="334" width="126" height="42" rx="12" class="zoom-label-background" />
  <text x="868" y="355" class="zoom-label" text-anchor="middle" dominant-baseline="middle">zoom in</text>
  <g id="selected-cta-detail">
    <rect x="1080" y="170" width="92" height="92" class="detail-cell" />
    <text x="1126.0" y="202.0" class="thread-label" text-anchor="middle" dominant-baseline="middle">thread</text>
    <text x="1126.0" y="233.0" class="thread-coordinate" text-anchor="middle" dominant-baseline="middle">(0, 0)</text>
    <rect x="1172" y="170" width="92" height="92" class="detail-cell" />
    <text x="1218.0" y="202.0" class="thread-label" text-anchor="middle" dominant-baseline="middle">thread</text>
    <text x="1218.0" y="233.0" class="thread-coordinate" text-anchor="middle" dominant-baseline="middle">(0, 1)</text>
    <rect x="1264" y="170" width="92" height="92" class="detail-cell" />
    <text x="1310.0" y="202.0" class="thread-label" text-anchor="middle" dominant-baseline="middle">thread</text>
    <text x="1310.0" y="233.0" class="thread-coordinate" text-anchor="middle" dominant-baseline="middle">(0, 2)</text>
    <rect x="1356" y="170" width="92" height="92" class="detail-cell" />
    <text x="1402.0" y="202.0" class="thread-label" text-anchor="middle" dominant-baseline="middle">thread</text>
    <text x="1402.0" y="233.0" class="thread-coordinate" text-anchor="middle" dominant-baseline="middle">(0, 3)</text>
    <rect x="1080" y="262" width="92" height="92" class="detail-cell" />
    <text x="1126.0" y="294.0" class="thread-label" text-anchor="middle" dominant-baseline="middle">thread</text>
    <text x="1126.0" y="325.0" class="thread-coordinate" text-anchor="middle" dominant-baseline="middle">(1, 0)</text>
    <rect x="1172" y="262" width="92" height="92" class="detail-cell" />
    <text x="1218.0" y="294.0" class="thread-label" text-anchor="middle" dominant-baseline="middle">thread</text>
    <text x="1218.0" y="325.0" class="thread-coordinate" text-anchor="middle" dominant-baseline="middle">(1, 1)</text>
    <rect x="1264" y="262" width="92" height="92" class="detail-cell" />
    <text x="1310.0" y="294.0" class="thread-label" text-anchor="middle" dominant-baseline="middle">thread</text>
    <text x="1310.0" y="325.0" class="thread-coordinate" text-anchor="middle" dominant-baseline="middle">(1, 2)</text>
    <rect x="1356" y="262" width="92" height="92" class="detail-cell" />
    <text x="1402.0" y="294.0" class="thread-label" text-anchor="middle" dominant-baseline="middle">thread</text>
    <text x="1402.0" y="325.0" class="thread-coordinate" text-anchor="middle" dominant-baseline="middle">(1, 3)</text>
    <rect x="1080" y="354" width="92" height="92" class="detail-cell" />
    <text x="1126.0" y="386.0" class="thread-label" text-anchor="middle" dominant-baseline="middle">thread</text>
    <text x="1126.0" y="417.0" class="thread-coordinate" text-anchor="middle" dominant-baseline="middle">(2, 0)</text>
    <rect x="1172" y="354" width="92" height="92" class="detail-cell" />
    <text x="1218.0" y="386.0" class="thread-label" text-anchor="middle" dominant-baseline="middle">thread</text>
    <text x="1218.0" y="417.0" class="thread-coordinate" text-anchor="middle" dominant-baseline="middle">(2, 1)</text>
    <rect x="1264" y="354" width="92" height="92" class="detail-cell" />
    <text x="1310.0" y="386.0" class="thread-label" text-anchor="middle" dominant-baseline="middle">thread</text>
    <text x="1310.0" y="417.0" class="thread-coordinate" text-anchor="middle" dominant-baseline="middle">(2, 2)</text>
    <rect x="1356" y="354" width="92" height="92" class="detail-cell" />
    <text x="1402.0" y="386.0" class="thread-label" text-anchor="middle" dominant-baseline="middle">thread</text>
    <text x="1402.0" y="417.0" class="thread-coordinate" text-anchor="middle" dominant-baseline="middle">(2, 3)</text>
    <rect x="1080" y="446" width="92" height="92" class="detail-cell" />
    <text x="1126.0" y="478.0" class="thread-label" text-anchor="middle" dominant-baseline="middle">thread</text>
    <text x="1126.0" y="509.0" class="thread-coordinate" text-anchor="middle" dominant-baseline="middle">(3, 0)</text>
    <rect x="1172" y="446" width="92" height="92" class="detail-cell" />
    <text x="1218.0" y="478.0" class="thread-label" text-anchor="middle" dominant-baseline="middle">thread</text>
    <text x="1218.0" y="509.0" class="thread-coordinate" text-anchor="middle" dominant-baseline="middle">(3, 1)</text>
    <rect x="1264" y="446" width="92" height="92" class="detail-cell" />
    <text x="1310.0" y="478.0" class="thread-label" text-anchor="middle" dominant-baseline="middle">thread</text>
    <text x="1310.0" y="509.0" class="thread-coordinate" text-anchor="middle" dominant-baseline="middle">(3, 2)</text>
    <rect x="1356" y="446" width="92" height="92" class="detail-cell" />
    <text x="1402.0" y="478.0" class="thread-label" text-anchor="middle" dominant-baseline="middle">thread</text>
    <text x="1402.0" y="509.0" class="thread-coordinate" text-anchor="middle" dominant-baseline="middle">(3, 3)</text>
    <rect x="1080" y="170" width="368" height="368" class="detail-outline" />
  </g>
  <rect x="100" y="607" width="500" height="58" rx="14" class="explanation-tag" />
  <text x="350.0" y="636" class="explanation-label" text-anchor="middle" dominant-baseline="middle">one CTA  →  one output tile of D</text>
  <rect x="970" y="607" width="540" height="58" rx="14" class="explanation-tag" />
  <text x="1240.0" y="636" class="explanation-label" text-anchor="middle" dominant-baseline="middle">one in-bounds thread  →  one D[m, n] element</text>
</svg>
